# xmcd
#
# Track frame offsets: 
#        150
#        12184
#        37828
#        53800
#        68369
#        92734
#        111512
#        125533
#        145982
#        162576
#        177685
#        189813
#        203504
#
# Disc length: 2860 seconds
#
# Revision: 0
# Processed by: cddbd v1.5.2PL0 Copyright (c) Steve Scherf et al.
# Submitted via: ExactAudioCopy v1.3
#
DISCID=ad0b2a0d
DTITLE=Sugar Brown - It's a Blues World (Calling All Blues)
DYEAR=2019
DGENRE=Blues
TTITLE0=Hummingbird
TTITLE1=Love Me Twice
TTITLE2=Lousy Dime
TTITLE3=Sure as the Stars
TTITLE4=It's a Blues World
TTITLE5=Hard to Love
TTITLE6=Frying Pan
TTITLE7=What I Know
TTITLE8=Tide Blues
TTITLE9=Those Things You Said
TTITLE10=Looking for 2 O'clock
TTITLE11=Dew on the Grass
TTITLE12=Brothers
EXTD=
EXTT0=
EXTT1=
EXTT2=
EXTT3=
EXTT4=
EXTT5=
EXTT6=
EXTT7=
EXTT8=
EXTT9=
EXTT10=
EXTT11=
EXTT12=
PLAYORDER=
